<?xml version="1.0" encoding="utf-8"?>
<!-- Generator: Adobe Illustrator 16.0.0, SVG Export Plug-In . SVG Version: 6.00 Build 0)  -->
<!DOCTYPE svg PUBLIC "-//W3C//DTD SVG 1.1//EN" "http://www.w3.org/Graphics/SVG/1.1/DTD/svg11.dtd">
<svg version="1.1" id="Layer_1" xmlns="http://www.w3.org/2000/svg" xmlns:xlink="http://www.w3.org/1999/xlink" x="0px" y="0px"
	 width="24px" height="24px" viewBox="0 0 24 24" style="enable-background:new 0 0 24 24;" xml:space="preserve">
<style type="text/css">
<![CDATA[
	.st0{fill:#231F20;}
]]>
</style>
<path class="st0" d="M5.3-0.1c-3,0-5.4,2.4-5.4,5.4v13.4c0,3,2.4,5.4,5.4,5.4h13.4c3,0,5.4-2.4,5.4-5.4V5.3c0-3-2.4-5.4-5.4-5.4H5.3
	z M11.4,4c0.2,0,0.4,0,0.6,0c1.2,0.1,2.3,0.7,3,1.6c0,0,0.1,0,0.1,0c1.6,0,3.2,1,3.8,2.4c0.6,1.1,0.5,2.4,0.1,3.4
	c0,0,0.1,0.1,0.1,0.1c0.8,1.4,0.7,3.2-0.1,4.5c-0.7,1-1.8,1.7-2.9,1.8c0,0,0,0.1-0.1,0.1c-0.8,1.4-2.4,2.3-4,2.1
	c-1.2-0.1-2.3-0.7-3-1.6c0,0-0.1,0-0.1,0c-1.6,0-3.2-1-3.8-2.4c-0.6-1.1-0.5-2.4-0.1-3.4c0,0-0.1-0.1-0.1-0.1
	C4.1,11.1,4.2,9.3,5.1,8C5.7,7,6.9,6.3,8,6.2c0,0,0-0.1,0.1-0.1C8.7,4.9,10.1,4.1,11.4,4z M12,5.7c-1,0.1-1.8,0.7-2.2,1.5
	C9.3,7.9,9.3,8.9,9.7,9.8c0.3,0.6,0.8,1.1,1.4,1.5c0,0,0,0,0,0c-0.4-1-0.4-2.2,0.1-3.3c0.5-0.9,1.3-1.7,2.3-2.1
	C13,5.7,12.5,5.6,12,5.7z M7.5,7.6c-0.4,0.3-0.8,0.8-1,1.2c-0.4,0.9-0.3,1.9,0.1,2.7c0.5,0.8,1.3,1.3,2.2,1.4c0.7,0.1,1.4-0.1,2-0.5
	c0,0,0,0,0-0.1c-1.1-0.1-2.1-0.8-2.7-1.7C7.5,9.8,7.3,8.7,7.5,7.6z M15.1,7.6c-0.9,0-1.8,0.5-2.3,1.2c-0.4,0.5-0.6,1.2-0.6,2
	c0,0,0,0,0.1,0c0.6-0.9,1.7-1.5,2.9-1.5c1-0.1,2.1,0.3,2.9,1c-0.1-0.5-0.3-1.1-0.6-1.5C16.9,8.1,16,7.6,15.1,7.6z M14.6,11.1
	c-0.5,0-1,0.2-1.5,0.5c0,0,0,0,0,0.1c1.1,0.1,2.1,0.8,2.7,1.7c0.6,0.9,0.8,2,0.6,3c0.4-0.3,0.8-0.8,1-1.2c0.4-0.9,0.3-1.9-0.1-2.7
	c-0.5-0.8-1.3-1.3-2.2-1.4C14.9,11.1,14.8,11.1,14.6,11.1z M12.9,12.7C12.9,12.7,12.9,12.8,12.9,12.7c0.4,1,0.4,2.3-0.2,3.3
	c-0.5,0.9-1.3,1.7-2.3,2.1c0.5,0.2,1,0.3,1.6,0.2c1-0.1,1.8-0.7,2.2-1.5c0.4-0.8,0.5-1.8,0.1-2.6C14.1,13.6,13.6,13.1,12.9,12.7z
	 M11.8,13.2c-0.6,0.9-1.7,1.5-2.9,1.5c-1.1,0.1-2.1-0.3-2.9-1c0.1,0.5,0.3,1.1,0.6,1.5c0.6,0.8,1.5,1.2,2.4,1.2
	c0.9,0,1.8-0.5,2.3-1.2C11.6,14.6,11.8,13.9,11.8,13.2C11.8,13.2,11.8,13.2,11.8,13.2z"/>
</svg>
