<?xml version="1.0" encoding="utf-8"?>
<!-- Generator: Adobe Illustrator 16.0.0, SVG Export Plug-In . SVG Version: 6.00 Build 0)  -->
<!DOCTYPE svg PUBLIC "-//W3C//DTD SVG 1.1//EN" "http://www.w3.org/Graphics/SVG/1.1/DTD/svg11.dtd">
<svg version="1.1" id="Layer_1" xmlns="http://www.w3.org/2000/svg" xmlns:xlink="http://www.w3.org/1999/xlink" x="0px" y="0px"
	 width="500px" height="367.651px" viewBox="0 0 500 367.651" enable-background="new 0 0 500 367.651" xml:space="preserve">
<path d="M494.351,30.858c-5.291-2.594-7.571,2.348-10.664,4.859c-1.061,0.809-1.954,1.862-2.852,2.834
	c-7.733,8.258-16.771,13.686-28.575,13.037c-17.262-0.972-31.997,4.456-45.024,17.658c-2.768-16.279-11.967-26-25.972-32.234
	c-7.327-3.24-14.735-6.48-19.865-13.527c-3.582-5.02-4.559-10.61-6.35-16.117c-1.142-3.32-2.28-6.723-6.106-7.29
	c-4.153-0.646-5.781,2.834-7.41,5.751c-6.513,11.907-9.037,25.027-8.793,38.31c0.57,29.886,13.189,53.695,38.266,70.624
	c2.849,1.943,3.582,3.885,2.687,6.723c-1.71,5.83-3.746,11.499-5.536,17.331c-1.141,3.726-2.851,4.536-6.839,2.916
	c-13.761-5.75-25.647-14.255-36.15-24.54c-17.83-17.251-33.95-36.284-54.06-51.187c-4.722-3.482-9.444-6.721-14.331-9.801
	c-20.517-19.921,2.688-36.283,8.063-38.225c5.617-2.025,1.953-8.991-16.204-8.908c-18.155,0.08-34.763,6.154-55.932,14.253
	c-3.093,1.215-6.352,2.106-9.689,2.834c-19.213-3.644-39.161-4.456-60.003-2.104c-39.243,4.373-70.588,22.919-93.627,54.588
	C1.702,116.706-4.811,159.954,3.167,205.066c8.385,47.542,32.647,86.899,69.936,117.678c38.674,31.908,83.207,47.541,134.011,44.545
	c30.857-1.781,65.214-5.912,103.967-38.715c9.771,4.862,20.03,6.806,37.046,8.262c13.108,1.216,25.728-0.646,35.498-2.672
	c15.306-3.24,14.248-17.413,8.712-20.004c-44.86-20.895-35.011-12.393-43.967-19.275c22.798-26.969,57.156-54.994,70.588-145.784
	c1.059-7.207,0.165-11.744,0-17.574c-0.081-3.564,0.733-4.938,4.805-5.345c11.234-1.297,22.145-4.373,32.16-9.88
	c29.064-15.875,40.788-41.953,43.556-73.215C499.888,38.307,499.398,33.365,494.351,30.858L494.351,30.858z M241.065,312.214
	c-43.477-34.175-64.563-45.433-73.275-44.948c-8.141,0.484-6.675,9.803-4.886,15.877c1.874,5.992,4.317,10.123,7.735,15.385
	c2.361,3.484,3.99,8.668-2.36,12.556c-14.004,8.668-38.349-2.919-39.488-3.481c-28.332-16.686-52.025-38.718-68.716-68.842
	c-16.12-28.997-25.482-60.097-27.03-93.302c-0.408-8.018,1.954-10.854,9.933-12.31c10.503-1.945,21.332-2.352,31.834-0.813
	c44.373,6.48,82.149,26.324,113.819,57.749c18.074,17.897,31.751,39.279,45.836,60.174c14.981,22.191,31.101,43.33,51.619,60.662
	c7.246,6.074,13.025,10.689,18.563,14.093c-16.691,1.862-44.535,2.269-63.588-12.799H241.065z M261.907,178.177
	c0-3.564,2.851-6.398,6.434-6.398c0.813,0,1.547,0.161,2.199,0.403c0.896,0.325,1.71,0.811,2.359,1.539
	c1.142,1.134,1.791,2.753,1.791,4.455c0,3.563-2.849,6.397-6.43,6.397c-3.582,0-6.352-2.834-6.352-6.397L261.907,178.177z
	 M326.634,211.381c-4.152,1.703-8.304,3.159-12.294,3.322c-6.188,0.325-12.944-2.187-16.608-5.265
	c-5.698-4.777-9.77-7.449-11.479-15.792c-0.733-3.562-0.327-9.071,0.327-12.228c1.464-6.804-0.165-11.177-4.968-15.147
	c-3.907-3.24-8.874-4.129-14.329-4.129c-2.036,0-3.907-0.893-5.292-1.62c-2.28-1.134-4.151-3.968-2.361-7.453
	c0.57-1.131,3.34-3.887,3.99-4.371c7.41-4.214,15.957-2.835,23.855,0.323c7.328,2.997,12.864,8.504,20.842,16.278
	c8.142,9.395,9.607,11.988,14.248,19.032c3.665,5.509,7.004,11.177,9.282,17.658c1.383,4.049-0.408,7.368-5.211,9.392H326.634z"/>
</svg>
