<?xml version="1.0" encoding="utf-8"?>
<!-- Generator: Adobe Illustrator 16.0.0, SVG Export Plug-In . SVG Version: 6.00 Build 0)  -->
<!DOCTYPE svg PUBLIC "-//W3C//DTD SVG 1.1//EN" "http://www.w3.org/Graphics/SVG/1.1/DTD/svg11.dtd">
<svg version="1.1" id="logosandtypes_com" xmlns="http://www.w3.org/2000/svg" xmlns:xlink="http://www.w3.org/1999/xlink" x="0px"
	 y="0px" width="500px" height="500px" viewBox="0 0 500 500" enable-background="new 0 0 500 500" xml:space="preserve">
<path id="mark" d="M194.618,318.218l165.414-122.271c8.113-5.985,19.718-3.672,23.573,5.655
	c20.341,49.091,11.234,108.097-29.229,148.633c-40.462,40.5-96.752,49.387-148.23,29.154l-56.215,26.069
	c80.633,55.188,178.558,41.528,239.731-19.754c48.541-48.578,63.559-114.816,49.495-174.557l0.111,0.11
	c-20.379-87.755,4.993-122.821,57.022-194.531c1.211-1.689,2.46-3.415,3.708-5.141l-68.441,68.516v-0.22L194.581,318.255"/>
<path id="mark-2" d="M160.47,347.923c-57.868-55.334-47.88-140.997,1.468-190.419c36.498-36.571,96.348-51.478,148.561-29.558
	l56.105-25.922c-10.098-7.308-23.06-15.165-37.93-20.709c-67.157-27.685-147.606-13.916-202.205,40.72
	c-52.507,52.58-69.03,133.433-40.684,202.425c21.187,51.553-13.548,88.05-48.541,124.842C24.834,462.335,12.423,475.407,2.4,489.213
	l157.997-141.29"/>
</svg>
