<svg xmlns="http://www.w3.org/2000/svg" xmlns:xlink="http://www.w3.org/1999/xlink" width="1080" zoomAndPan="magnify" viewBox="0 0 810 809.999993" height="1080" preserveAspectRatio="xMidYMid meet" version="1.2"><g id="7d37483217"><path style=" stroke:none;fill-rule:evenodd;fill:#2c3639;fill-opacity:1;" d="M 288.347656 40.859375 C 283.078125 46.128906 278.765625 52.105469 278.765625 54.140625 C 278.765625 64.332031 303.5625 153.796875 307.464844 157.703125 C 315.527344 165.761719 341.972656 162.796875 349.121094 153.035156 C 356.894531 142.414062 354.71875 122.351562 340.46875 73.265625 C 328.371094 31.613281 309.398438 19.808594 288.347656 40.859375 M 430.128906 56.726562 C 418.488281 68.363281 401.492188 108.804688 396.050781 137.8125 C 390.839844 165.589844 416.921875 184.84375 438.316406 169.003906 C 446.558594 162.898438 469.355469 103.152344 473.660156 76.363281 C 478.199219 48.175781 450.964844 35.890625 430.128906 56.726562 M 149.292969 112.964844 C 140.179688 129.984375 145.859375 142.996094 169.03125 158.179688 C 181.132812 166.109375 198.992188 179.597656 208.722656 188.164062 C 229.09375 206.097656 241.285156 207.679688 254.816406 194.152344 C 269.714844 179.253906 266.582031 165.859375 242.878906 143.148438 C 203.855469 105.757812 160.609375 91.808594 149.292969 112.964844 M 481.679688 203.304688 C 456.398438 209.683594 434.980469 225.949219 415.101562 253.875 C 403.121094 270.703125 393.484375 279.757812 388.949219 278.449219 C 384.996094 277.308594 357.605469 266.378906 328.074219 254.160156 C 240.308594 217.851562 184.703125 219.378906 149.867188 259.054688 C 107.292969 307.542969 125.394531 365.832031 193.601562 399.914062 C 209.667969 407.945312 225.953125 414.511719 229.789062 414.511719 C 234.851562 414.511719 235.824219 417.472656 233.339844 425.289062 C 219.476562 468.832031 219.375 478.945312 232.496094 507.605469 C 239.5 522.910156 245.234375 541.746094 245.234375 549.464844 C 245.234375 568.746094 255.542969 586.972656 277.828125 607.105469 C 301.539062 628.53125 327.652344 638.265625 430.714844 664.113281 L 513.179688 684.792969 L 527.5 713.894531 C 546.671875 752.835938 561.628906 766.394531 585.421875 766.394531 C 609.382812 766.394531 626.878906 750.234375 646.472656 710.011719 C 672.980469 655.597656 695.535156 560.144531 695.535156 502.386719 C 695.535156 476.046875 693.824219 469.851562 683.773438 459.804688 C 669.574219 445.605469 662.21875 445.121094 646.640625 457.378906 C 626.6875 473.074219 616.46875 466.078125 610.207031 432.414062 C 606.882812 414.535156 598.039062 392.226562 587.511719 375.171875 L 570.261719 347.222656 L 578.5625 314.984375 C 587.789062 279.164062 585.863281 257.96875 571.179688 233.90625 C 555.515625 208.226562 515.898438 194.679688 481.679688 203.304688 M 483.363281 261.710938 C 478.644531 264.457031 463.023438 284.933594 448.644531 307.21875 C 434.269531 329.503906 419.730469 348.800781 416.339844 350.105469 C 412.949219 351.402344 394.613281 344.898438 375.597656 335.640625 C 261.398438 280.0625 204.890625 269.914062 187.769531 301.898438 C 174.992188 325.773438 198.167969 347.648438 254.078125 364.472656 C 272.976562 370.15625 278.914062 370.101562 296.730469 364.054688 C 324.003906 354.792969 373.753906 355.128906 406.996094 364.792969 C 462.324219 380.875 499.136719 433.839844 499.117188 497.328125 C 499.113281 533.347656 488.910156 556.003906 465.59375 571.769531 C 451.265625 581.457031 444.617188 582.785156 419.871094 580.878906 C 367.777344 576.863281 340.371094 553.027344 357.613281 526.71875 C 365.175781 515.167969 367.816406 514.292969 385.832031 517.34375 C 396.769531 519.199219 412.464844 521.8125 420.71875 523.160156 C 439.035156 526.148438 442.96875 520.738281 442.417969 493.324219 C 441.511719 448.097656 420.742188 424.960938 371.078125 413.847656 C 340.296875 406.957031 315.035156 413.078125 296.09375 432.027344 C 273.894531 454.21875 273.441406 487.550781 295.222656 495.828125 C 305.800781 499.855469 306.300781 501.59375 302.171875 519.949219 C 292.246094 564.140625 313.269531 577.898438 437.316406 608.390625 C 542.039062 634.128906 558.867188 634.039062 584.027344 607.585938 C 597 593.941406 618.886719 541.824219 618.886719 524.574219 C 618.886719 522.425781 608.363281 517.175781 595.5 512.902344 C 563.605469 502.3125 558.015625 494.484375 555.769531 457.273438 C 554.164062 430.679688 551.097656 421.601562 536.082031 398.972656 C 516.164062 368.964844 513.703125 348.671875 523.964844 298.992188 C 528.527344 276.902344 528.410156 270.039062 523.375 263.972656 C 516.273438 255.410156 496.144531 254.277344 483.363281 261.710938 "/></g></svg>