<svg xmlns="http://www.w3.org/2000/svg" xmlns:xlink="http://www.w3.org/1999/xlink" width="1080" zoomAndPan="magnify" viewBox="0 0 810 809.999993" height="1080" preserveAspectRatio="xMidYMid meet" version="1.2"><g id="613227a727"><path style=" stroke:none;fill-rule:evenodd;fill:#2c3639;fill-opacity:1;" d="M 384.421875 23.46875 C 382.679688 25.207031 381.253906 70.125 381.253906 123.289062 L 381.253906 219.945312 L 275.582031 122.691406 L 169.910156 25.433594 L 167.535156 138.042969 L 165.160156 250.644531 L 77.28125 250.644531 L 77.292969 415.5 L 77.296875 580.363281 L 121.226562 581.726562 L 165.160156 583.097656 L 169.910156 785.457031 L 378.878906 601.035156 L 381.253906 694.171875 L 383.628906 787.316406 L 403.71875 788.769531 L 423.800781 790.226562 L 425.089844 692.484375 L 426.371094 594.738281 L 642.277344 784.777344 L 644.839844 583.097656 L 688.773438 581.726562 L 732.703125 580.367188 L 732.707031 415.5 L 732.71875 250.644531 L 644.839844 250.644531 L 640.089844 24.957031 L 534.539062 122.363281 C 476.488281 175.941406 427.863281 219.773438 426.492188 219.773438 C 425.117188 219.773438 423.996094 174.890625 423.996094 120.035156 L 423.996094 20.300781 L 405.792969 20.300781 C 395.777344 20.300781 386.160156 21.726562 384.421875 23.46875 M 210.277344 186.007812 L 210.277344 253.019531 L 279.144531 253.019531 C 317.019531 253.019531 347.785156 251.417969 347.515625 249.457031 C 347.242188 247.496094 330.675781 231.085938 310.707031 212.992188 C 287.699219 192.074219 264.910156 170.925781 242.335938 149.542969 L 210.277344 119.007812 Z M 528.484375 185.472656 C 493.21875 218.597656 463.652344 247.351562 462.785156 249.359375 C 461.910156 251.375 492.367188 253.019531 530.464844 253.019531 L 599.722656 253.019531 L 599.722656 188.902344 C 599.722656 153.636719 598.117188 124.886719 596.160156 125.007812 C 594.203125 125.132812 563.746094 152.339844 528.484375 185.472656 M 120.039062 416.871094 L 120.035156 540.351562 L 143.78125 538.703125 L 167.535156 537.0625 L 167.535156 459.519531 L 257.398438 378.828125 C 306.828125 334.445312 347.433594 297.066406 347.636719 295.761719 C 347.839844 294.457031 296.714844 293.386719 234.023438 293.386719 L 120.039062 293.386719 Z M 466.742188 295.460938 C 466.742188 297.011719 506.28125 334.167969 554.605469 378.042969 L 642.464844 457.816406 L 642.464844 537.976562 L 689.960938 537.976562 L 689.960938 290.53125 L 578.351562 291.589844 C 516.964844 292.175781 466.742188 293.917969 466.742188 295.460938 M 294.578125 401.539062 L 210.277344 478.492188 L 210.277344 584.957031 C 210.277344 685.875 210.710938 691.0625 218.589844 684.386719 C 223.15625 680.507812 261.632812 646.8125 304.078125 609.507812 L 381.253906 541.667969 L 381.253906 432.964844 C 381.253906 373.175781 380.722656 324.328125 380.066406 324.417969 C 379.410156 324.507812 340.945312 359.210938 294.578125 401.539062 M 428.855469 431.863281 L 428.96875 540.351562 L 514.34375 615.347656 L 599.722656 690.34375 L 599.722656 478.535156 L 537.160156 421.582031 C 508.714844 395.667969 480.21875 369.808594 451.671875 344 L 428.746094 323.378906 Z M 428.855469 431.863281 "/></g></svg>