<svg xmlns="http://www.w3.org/2000/svg" xmlns:xlink="http://www.w3.org/1999/xlink" width="1080" zoomAndPan="magnify" viewBox="0 0 810 809.999993" height="1080" preserveAspectRatio="xMidYMid meet" version="1.2"><g id="b4fc4c3e8b"><path style=" stroke:none;fill-rule:evenodd;fill:#2c3639;fill-opacity:1;" d="M 388.863281 31.042969 C 332.429688 38.277344 296.753906 54.265625 235.796875 99.625 C 232.449219 102.117188 226.242188 97.976562 193.644531 71.480469 C 172.621094 54.394531 154.316406 40.4375 152.972656 40.460938 C 150.894531 40.5 84.792969 121.730469 82.75 126.753906 C 82.359375 127.707031 93.945312 137.957031 108.5 149.53125 L 134.957031 170.574219 L 134.957031 782.976562 L 249.933594 782.976562 L 249.933594 518.515625 L 258.914062 527.050781 C 308.347656 574.035156 386.667969 600.785156 453.539062 593.527344 C 631.535156 574.210938 746.402344 400.679688 695.207031 228.449219 C 673.066406 153.972656 610.21875 83.710938 537.847656 52.527344 C 490.488281 32.117188 438.695312 24.648438 388.863281 31.042969 M 387.667969 135.246094 C 316.417969 151.113281 263.644531 204.539062 248.953125 275.675781 C 230.546875 364.777344 284.292969 453.65625 373.011719 480.832031 C 400.800781 489.347656 446.554688 489.65625 472.617188 481.507812 C 563.476562 453.105469 616.777344 365.777344 598.257812 275.660156 C 584.449219 208.46875 534.507812 154.988281 469.109375 137.355469 C 448.167969 131.710938 408.191406 130.675781 387.667969 135.246094 "/></g></svg>